<?xml version="1.0" standalone="no"?>
<!DOCTYPE svg PUBLIC "-//W3C//DTD SVG 20010904//EN"
 "http://www.w3.org/TR/2001/REC-SVG-20010904/DTD/svg10.dtd">
<svg version="1.0" xmlns="http://www.w3.org/2000/svg"
 width="1024.000000pt" height="1024.000000pt" viewBox="0 0 1024.000000 1024.000000"
 preserveAspectRatio="xMidYMid meet">

<g transform="translate(0.000000,1024.000000) scale(0.100000,-0.100000)"
fill="#000000" stroke="none">
<path d="M3257 6653 l142 -4 4 -67 3 -67 2 73 2 72 -147 -2 -148 -2 142 -3z"/>
<path d="M6827 6653 c-3 -5 36 -7 86 -5 166 4 184 8 50 10 -72 1 -134 -1 -136
-5z"/>
<path d="M3078 6643 c7 -3 16 -2 19 1 4 3 -2 6 -13 5 -11 0 -14 -3 -6 -6z"/>
<path d="M7128 6643 c7 -3 16 -2 19 1 4 3 -2 6 -13 5 -11 0 -14 -3 -6 -6z"/>
<path d="M7191 6626 c2 -2 15 -9 29 -15 24 -11 24 -11 6 3 -16 13 -49 24 -35
12z"/>
<path d="M2979 6599 l-24 -20 28 17 c15 9 27 18 27 20 0 8 -8 4 -31 -17z"/>
<path d="M2924 6558 l-19 -23 23 19 c21 18 27 26 19 26 -2 0 -12 -10 -23 -22z"/>
<path d="M7310 6541 c5 -11 15 -23 21 -27 6 -3 3 5 -6 20 -20 30 -30 35 -15 7z"/>
<path d="M3320 6470 l-85 -6 88 -2 c52 -1 87 2 87 8 0 6 -1 9 -2 8 -2 -1 -41
-5 -88 -8z"/>
<path d="M7356 6467 c3 -10 9 -15 12 -12 3 3 0 11 -7 18 -10 9 -11 8 -5 -6z"/>
<path d="M6863 6463 c26 -2 67 -2 90 0 23 2 2 3 -48 3 -49 0 -68 -1 -42 -3z"/>
<path d="M3140 6424 c-31 -27 -60 -72 -60 -96 0 -7 10 8 23 32 12 25 37 55 56
67 19 13 29 23 23 23 -6 0 -24 -12 -42 -26z"/>
<path d="M2851 6424 c0 -11 3 -14 6 -6 3 7 2 16 -1 19 -3 4 -6 -2 -5 -13z"/>
<path d="M7095 6410 c47 -55 48 -56 37 -35 -6 11 -23 31 -39 45 l-28 25 30
-35z"/>
<path d="M7382 6385 c0 -16 2 -22 5 -12 2 9 2 23 0 30 -3 6 -5 -1 -5 -18z"/>
<path d="M2842 6375 c0 -16 2 -22 5 -12 2 9 2 23 0 30 -3 6 -5 -1 -5 -18z"/>
<path d="M7395 5980 c0 -201 1 -283 2 -182 2 100 2 264 0 365 -1 100 -2 18 -2
-183z"/>
<path d="M2835 5960 c0 -206 1 -291 2 -187 2 103 2 271 0 375 -1 103 -2 18 -2
-188z"/>
<path d="M7155 5950 c0 -195 1 -275 2 -177 2 97 2 257 0 355 -1 97 -2 17 -2
-178z"/>
<path d="M3071 6254 c0 -11 3 -14 6 -6 3 7 2 16 -1 19 -3 4 -6 -2 -5 -13z"/>
<path d="M3073 6045 c0 -27 2 -38 4 -22 2 15 2 37 0 50 -2 12 -4 0 -4 -28z"/>
<path d="M3074 5845 c0 -66 1 -92 3 -57 2 34 2 88 0 120 -2 31 -3 3 -3 -63z"/>
<path d="M3073 5630 c0 -30 2 -43 4 -27 2 15 2 39 0 55 -2 15 -4 2 -4 -28z"/>
<path d="M7401 5587 c-1 -21 25 -87 34 -87 3 0 3 5 -1 11 -4 7 -13 30 -20 53
-7 23 -13 33 -13 23z"/>
<path d="M7162 5560 c0 -14 2 -19 5 -12 2 6 2 18 0 25 -3 6 -5 1 -5 -13z"/>
<path d="M3061 5543 c-1 -6 -4 -20 -7 -30 -5 -17 -5 -17 6 0 6 10 9 23 6 30
-3 9 -5 9 -5 0z"/>
<path d="M2766 5472 c-36 -42 -36 -44 -7 -17 28 25 58 66 49 65 -2 -1 -21 -22
-42 -48z"/>
<path d="M3035 5471 c-3 -12 -23 -43 -42 -69 -20 -26 -26 -38 -13 -27 26 24
75 104 67 111 -3 3 -8 -4 -12 -15z"/>
<path d="M7180 5485 c0 -5 5 -17 10 -25 5 -8 10 -10 10 -5 0 6 -5 17 -10 25
-5 8 -10 11 -10 5z"/>
<path d="M7450 5476 c19 -24 89 -76 104 -76 6 0 -5 10 -24 21 -19 12 -48 33
-65 48 -16 14 -23 17 -15 7z"/>
<path d="M2700 5420 c-9 -6 -10 -10 -3 -10 6 0 15 5 18 10 8 12 4 12 -15 0z"/>
<path d="M7245 5380 c10 -11 20 -20 23 -20 3 0 -3 9 -13 20 -10 11 -20 20 -23
20 -3 0 3 -9 13 -20z"/>
<path d="M2542 5288 c3 -102 3 -103 28 -104 22 -1 22 0 3 3 -22 4 -23 9 -23
98 l0 94 28 4 c25 4 24 4 -6 6 l-33 1 3 -102z"/>
<path d="M7648 5383 c21 -4 22 -9 22 -98 0 -89 -1 -94 -22 -98 -20 -3 -20 -4
2 -3 25 1 25 1 25 101 0 100 0 100 -25 101 -22 1 -22 0 -2 -3z"/>
<path d="M7286 5348 c7 -12 84 -50 93 -46 4 2 -17 15 -46 29 -28 14 -50 21
-47 17z"/>
<path d="M2900 5330 c-19 -11 -31 -19 -27 -20 11 0 67 29 67 35 0 7 -1 7 -40
-15z"/>
<path d="M7408 5288 c5 -5 16 -8 23 -6 8 3 3 7 -10 11 -17 4 -21 3 -13 -5z"/>
<path d="M2870 5260 c19 -11 40 -19 45 -19 6 0 -6 8 -25 19 -19 11 -39 19 -45
19 -5 0 6 -8 25 -19z"/>
<path d="M7378 5273 c7 -3 16 -2 19 1 4 3 -2 6 -13 5 -11 0 -14 -3 -6 -6z"/>
<path d="M7294 5234 c-18 -14 -18 -15 4 -4 12 6 22 13 22 15 0 8 -5 6 -26 -11z"/>
<path d="M7249 5203 c-29 -35 -41 -53 -36 -53 2 0 17 16 31 35 28 36 31 49 5
18z"/>
<path d="M2961 5207 c2 -1 13 -9 24 -17 19 -14 19 -14 6 3 -7 9 -18 17 -24 17
-6 0 -8 -1 -6 -3z"/>
<path d="M3015 5146 c10 -14 19 -26 22 -26 7 0 -17 39 -28 46 -6 3 -3 -5 6
-20z"/>
<path d="M7514 5154 c-18 -14 -18 -14 6 -3 31 14 36 19 24 19 -6 0 -19 -7 -30
-16z"/>
<path d="M2726 5141 c17 -10 43 -34 58 -52 15 -19 23 -24 17 -13 -13 26 -77
84 -94 84 -7 0 2 -9 19 -19z"/>
<path d="M7458 5113 c-29 -32 -52 -72 -45 -80 3 -2 8 5 12 17 4 12 20 37 37
56 36 41 33 46 -4 7z"/>
<path d="M7176 5085 c-3 -9 -6 -22 -5 -28 0 -7 5 -1 10 12 5 13 8 26 5 28 -2
2 -6 -3 -10 -12z"/>
<path d="M3061 5034 c0 -11 3 -14 6 -6 3 7 2 16 -1 19 -3 4 -6 -2 -5 -13z"/>
<path d="M7162 5020 c0 -14 2 -19 5 -12 2 6 2 18 0 25 -3 6 -5 1 -5 -13z"/>
<path d="M2821 5004 c0 -11 3 -14 6 -6 3 7 2 16 -1 19 -3 4 -6 -2 -5 -13z"/>
<path d="M7401 5004 c0 -11 3 -14 6 -6 3 7 2 16 -1 19 -3 4 -6 -2 -5 -13z"/>
<path d="M3071 4974 c0 -11 3 -14 6 -6 3 7 2 16 -1 19 -3 4 -6 -2 -5 -13z"/>
<path d="M2835 4605 c0 -203 1 -285 2 -182 2 104 2 270 0 370 -1 100 -2 16 -2
-188z"/>
<path d="M7155 4615 c0 -198 1 -280 2 -183 2 97 2 259 0 360 -1 101 -2 21 -2
-177z"/>
<path d="M7395 4600 c0 -206 1 -291 2 -187 2 103 2 271 0 375 -1 103 -2 18 -2
-188z"/>
<path d="M3072 4900 c0 -14 2 -19 5 -12 2 6 2 18 0 25 -3 6 -5 1 -5 -13z"/>
<path d="M3072 4820 c0 -14 2 -19 5 -12 2 6 2 18 0 25 -3 6 -5 1 -5 -13z"/>
<path d="M3073 4600 c0 -25 2 -35 4 -22 2 12 2 32 0 45 -2 12 -4 2 -4 -23z"/>
<path d="M3081 4260 c-1 -25 35 -94 59 -115 21 -18 21 -16 -3 16 -15 20 -33
53 -41 75 -8 21 -15 32 -15 24z"/>
<path d="M2842 4205 c0 -16 2 -22 5 -12 2 9 2 23 0 30 -3 6 -5 -1 -5 -18z"/>
<path d="M7381 4184 c0 -11 3 -14 6 -6 3 7 2 16 -1 19 -3 4 -6 -2 -5 -13z"/>
<path d="M2851 4160 c0 -8 4 -22 9 -30 12 -18 12 -2 0 25 -6 13 -9 15 -9 5z"/>
<path d="M7345 4089 c-10 -22 -41 -60 -68 -85 -27 -24 -46 -44 -43 -44 28 0
149 151 133 166 -2 2 -12 -14 -22 -37z"/>
<path d="M2870 4103 c0 -6 9 -21 21 -34 l20 -24 -17 30 c-24 39 -24 40 -24 28z"/>
<path d="M3218 4103 c7 -3 16 -2 19 1 4 3 -2 6 -13 5 -11 0 -14 -3 -6 -6z"/>
<path d="M3298 4093 c23 -2 59 -2 80 0 20 2 1 4 -43 4 -44 0 -61 -2 -37 -4z"/>
<path d="M6868 4093 c23 -2 59 -2 80 0 20 2 1 4 -43 4 -44 0 -61 -2 -37 -4z"/>
<path d="M3400 3995 l0 -84 -122 -4 -123 -3 128 -2 127 -2 0 90 c0 50 -2 90
-5 90 -3 0 -5 -38 -5 -85z"/>
<path d="M6823 4040 c0 -25 2 -35 4 -22 2 12 2 32 0 45 -2 12 -4 2 -4 -23z"/>
<path d="M2910 4037 c0 -2 15 -16 33 -33 l32 -29 -29 33 c-28 30 -36 37 -36
29z"/>
<path d="M2986 3969 c6 -11 64 -42 69 -37 2 2 -14 13 -36 25 -21 12 -37 17
-33 12z"/>
<path d="M7143 3930 c-34 -14 -28 -21 7 -9 17 6 30 13 30 15 0 6 -12 4 -37 -6z"/>
<path d="M6820 3918 c0 -16 12 -18 123 -16 l122 2 -115 3 c-76 3 -117 8 -122
16 -5 8 -8 7 -8 -5z"/>
<path d="M3108 3913 c6 -2 18 -2 25 0 6 3 1 5 -13 5 -14 0 -19 -2 -12 -5z"/>
</g>
</svg>
